<svg width="80" height="80" viewBox="0 0 80 80" fill="none" xmlns="http://www.w3.org/2000/svg">
<g clip-path="url(#clip0)">
<path d="M61.0938 77.8125C61.0938 73.9292 57.9458 70.7812 54.0625 70.7812H25.9375C22.0542 70.7812 18.9062 73.9292 18.9062 77.8125V80.3125H61.0938V77.8125Z" fill="#FFC000"/>
<path d="M75.3125 18.9062V14.2188H46.5995C45.8914 12.2331 44.3294 10.6711 42.3438 9.96297V0H37.6562V9.96297C35.6706 10.6711 34.1086 12.2331 33.4005 14.2188H4.6875V18.9062H10.5475L0 44.6875C0 51.1489 5.25734 56.4062 11.7188 56.4062H16.4062C22.8677 56.4062 28.125 51.1489 28.125 44.6875L17.5298 18.9062H33.4006C34.1087 20.8919 35.6708 22.4539 37.6564 23.162V56.6631C33.0759 57.6005 29.4525 61.1991 28.5186 65.7812H51.4817C50.5478 61.1991 46.9244 57.6005 42.3439 56.6631V23.162C44.3295 22.4539 45.8916 20.8919 46.5997 18.9062H62.4227L51.875 44.6875C51.875 51.1489 57.1323 56.4062 63.5938 56.4062H68.2812C74.7427 56.4062 80 51.1489 80 44.6875L69.4048 18.9062H75.3125ZM22.265 42.3438H5.86L14.0625 22.6553L22.265 42.3438ZM74.14 42.3438H57.735L65.9375 22.6553L74.14 42.3438Z" fill="#FFC000"/>
</g>
<defs>
<clipPath id="clip0">
<rect width="80" height="80" fill="white"/>
</clipPath>
</defs>
</svg>
