<svg width="80" height="80" viewBox="0 0 80 80" fill="none" xmlns="http://www.w3.org/2000/svg">
<g clip-path="url(#clip0)">
<path d="M68.2812 44.6875C66.3611 44.6875 64.574 45.1959 62.973 46.0181L59.8053 42.2534C61.2097 41.4233 62.7289 40.7849 64.3347 40.4254C65.6439 40.1306 66.9415 40.0226 68.2941 40.0024C70.0409 40.0159 71.7596 39.3268 73.0457 38.0524C74.3872 36.7249 75.1562 34.8779 75.1562 32.6941C75.1562 20.6903 65.0439 11.875 54.3671 11.875H51.7188C50.4236 11.875 49.375 12.9236 49.375 14.2188C49.375 15.5139 50.4236 16.5625 51.7188 16.5625H54.3671C55.0653 16.5625 55.7312 16.6827 56.4062 16.7694V21.2982C55.0452 21.4215 53.7634 21.8427 52.5507 22.4072C52.5354 22.3895 52.5159 22.3779 52.5012 22.3602C50.5774 23.2599 48.9191 24.6667 47.7179 26.4685L42.3828 34.4702C42.0166 35.0171 41.4398 35.3857 40.7874 35.4865C36.0425 36.2158 31.9293 39.2407 29.7693 43.6578C31.7712 46.6498 32.9688 50.2142 32.9688 54.0625H28.125C28.125 46.308 21.817 40 14.0625 40C6.30798 40 0 46.308 0 54.0625C0 61.817 6.30798 68.125 14.0625 68.125C20.1654 68.125 25.3198 64.1943 27.2614 58.75H49.375C50.6702 58.75 51.7188 57.7014 51.7188 56.4062C51.7188 55.1038 51.8744 53.7738 52.179 52.4561C52.8174 49.7192 54.2407 47.2284 56.1511 45.1935L59.3146 48.9526C57.6221 50.9845 56.5625 53.5614 56.5625 56.4062C56.5625 62.8674 61.8201 68.125 68.2812 68.125C74.7424 68.125 80 62.8674 80 56.4062C80 49.9451 74.7424 44.6875 68.2812 44.6875ZM14.0625 63.4375C8.89221 63.4375 4.6875 59.2328 4.6875 54.0625C4.6875 48.8922 8.89221 44.6875 14.0625 44.6875C19.2328 44.6875 23.4375 48.8922 23.4375 54.0625H16.4062C15.1129 54.0625 14.0625 53.0121 14.0625 51.7188C14.0625 50.4236 13.0139 49.375 11.7188 49.375C10.4236 49.375 9.375 50.4236 9.375 51.7188C9.375 55.5957 12.5293 58.75 16.4062 58.75H22.1338C20.5078 61.5387 17.5177 63.4375 14.0625 63.4375ZM68.2812 63.4375C64.4043 63.4375 61.25 60.2832 61.25 56.4062C61.25 55.0482 61.6547 53.7903 62.3242 52.7136L66.4502 57.8711C67.265 58.8873 68.7408 59.0405 69.7461 58.2373C70.7556 57.4268 70.9204 55.9534 70.1123 54.9414L65.9912 49.79C66.7126 49.5392 67.475 49.375 68.2812 49.375C72.1582 49.375 75.3125 52.5293 75.3125 56.4062C75.3125 60.2832 72.1582 63.4375 68.2812 63.4375Z" fill="#FFC000"/>
<path d="M39.8021 29.892L43.8176 23.8684C45.1012 21.9421 46.7845 20.3772 48.6968 19.162C46.1248 17.5378 43.1597 16.5625 39.9999 16.5625C34.4622 16.5625 29.3468 19.3854 26.3359 23.9124L30.0847 26.1621C33.0962 27.9688 36.3939 29.1785 39.8021 29.892Z" fill="#FFC000"/>
<path d="M27.6727 30.1807L12.6324 21.25H2.34375C1.04858 21.25 0 22.2986 0 23.5938C0 30.0549 5.25757 35.3125 11.7188 35.3125C16.4069 35.3125 21.2701 35.4144 26.4807 39.9438C26.5009 39.9066 26.5009 39.8645 26.5234 39.8285C28.3417 36.9049 30.9088 34.6381 33.8519 33.045C31.7212 32.2656 29.635 31.3574 27.6727 30.1807Z" fill="#FFC000"/>
</g>
<defs>
<clipPath id="clip0">
<rect width="80" height="80" fill="white"/>
</clipPath>
</defs>
</svg>
