<svg width="90" height="90" viewBox="0 0 90 90" fill="none" xmlns="http://www.w3.org/2000/svg">
<g clip-path="url(#clip0)">
<path d="M19.5001 50.5957C15.3646 50.5957 12 53.9602 12 58.0958C12 62.2312 15.3645 65.5958 19.5001 65.5958C23.6355 65.5958 27.0001 62.2314 27.0001 58.0958C27.0001 53.9603 23.6357 50.5957 19.5001 50.5957ZM19.5001 62.5958C17.0191 62.5958 15.0001 60.5767 15.0001 58.0958C15.0001 55.6148 17.0191 53.5958 19.5001 53.5958C21.981 53.5958 24.0001 55.6148 24.0001 58.0958C24.0001 60.5767 21.981 62.5958 19.5001 62.5958Z" fill="#FFC000"/>
<path d="M88.5001 50.5959V41.5959C88.5001 40.9509 88.0875 40.3763 87.474 40.1724L79.011 37.3509C75.8236 31.9525 71.4421 26.815 61.7595 25.1185C61.7416 25.1155 61.7235 25.1125 61.7055 25.1095C43.824 22.6375 30.3991 26.671 21.78 37.102C15.3645 37.195 8.81543 38.5361 4.96354 41.0021C2.96859 42.28 1.78506 44.5045 1.67396 46.8716L1.49994 50.5961C0.672012 50.5961 0 51.2681 0 52.096V58.0959C0 58.9239 0.672012 59.5959 1.49994 59.5959H7.49988C8.33238 59.5959 8.99842 58.9119 8.99982 58.0794C8.99982 58.0719 9.00141 58.0645 9.00141 58.0553C9.02391 52.2758 13.7145 47.5958 19.4999 47.5958C25.299 47.5958 29.9999 52.2967 29.9999 58.0958C29.892 59.0063 30.6104 59.5957 31.4998 59.5957H58.4998C59.3323 59.5957 59.9984 58.9117 59.9998 58.0793C59.9998 58.0717 60.0012 58.0643 60.0012 58.0552C60.0237 52.2757 64.7142 47.5957 70.4997 47.5957C76.2987 47.5957 80.9996 52.2966 80.9996 58.0956C80.8917 59.0061 81.6101 59.5955 82.4996 59.5955H88.4995C89.3275 59.5955 89.9995 58.9235 89.9995 58.0956V52.0957C90 51.2679 89.328 50.5959 88.5001 50.5959ZM48.0001 36.346C48.0001 36.76 47.6641 37.0961 47.25 37.0961H27.6885C26.9956 37.0961 26.6806 36.2441 27.192 35.7775C32.397 31.033 39.0164 28.3195 47.1735 27.5981C47.613 27.5591 48.0001 27.9131 48.0001 28.3541V36.346ZM66.021 36.3534C66.0164 36.7644 65.6819 37.0959 65.2709 37.0959H51.75C51.336 37.0959 50.9999 36.76 50.9999 36.3458V28.1558C50.9999 27.7403 51.3315 27.3984 51.7454 27.3984C54.7363 27.3954 57.9015 27.6128 61.2659 28.078C62.868 28.3599 64.2959 28.747 65.5949 29.2225C65.8934 29.332 66.0839 29.6215 66.0809 29.9395L66.021 36.3534ZM73.8496 37.0959H69.7711C69.3541 37.0959 69.0166 36.7554 69.021 36.3384L69.0601 32.2735C69.066 31.6541 69.7725 31.318 70.2721 31.6839C71.8937 32.8689 73.2421 34.2804 74.4435 35.8825C74.8185 36.3819 74.4734 37.0959 73.8496 37.0959Z" fill="#FFC000"/>
<path d="M70.5001 50.5957C66.3646 50.5957 63 53.9602 63 58.0958C63 62.2312 66.3645 65.5958 70.5001 65.5958C74.6355 65.5958 78.0001 62.2314 78.0001 58.0958C77.9999 53.9603 74.6355 50.5957 70.5001 50.5957ZM70.5001 62.5958C68.0191 62.5958 66.0001 60.5767 66.0001 58.0958C66.0001 55.6148 68.0191 53.5958 70.5001 53.5958C72.981 53.5958 75.0001 55.6148 75.0001 58.0958C75.0001 60.5767 72.981 62.5958 70.5001 62.5958Z" fill="#FFC000"/>
</g>
<defs>
<clipPath id="clip0">
<rect width="90" height="90" fill="white"/>
</clipPath>
</defs>
</svg>
