<svg width="73" height="73" viewBox="0 0 73 73" fill="none" xmlns="http://www.w3.org/2000/svg">
<g clip-path="url(#clip0)">
<path d="M71.841 32.9975L38.0784 0.634501C37.1967 -0.2115 35.8033 -0.2115 34.9216 0.634501L1.12559 33.0309C0.410469 33.746 0 34.7313 0 35.7382C0 37.834 1.70648 39.5405 3.80227 39.5405H9.125V68.436C9.125 70.9545 11.169 72.9985 13.6875 72.9985H26.6148C27.874 72.9985 28.896 71.9765 28.896 70.7172V50.9468C28.896 50.5296 29.2363 50.186 29.6562 50.186H43.3438C43.7603 50.186 44.104 50.5296 44.104 50.9468V70.7172C44.104 71.9765 45.126 72.9985 46.3852 72.9985H59.3125C61.831 72.9985 63.875 70.9545 63.875 68.436V39.5405H69.1977C71.2935 39.5405 73 37.834 73 35.7382C73 34.7313 72.5895 33.746 71.841 32.9975Z" fill="#FFC000"/>
</g>
<defs>
<clipPath id="clip0">
<rect width="73" height="73" fill="white"/>
</clipPath>
</defs>
</svg>
