<svg width="33" height="41" viewBox="0 0 33 41" fill="none" xmlns="http://www.w3.org/2000/svg">
<path d="M24.1074 0.703125V8.00729H31.4116L24.1074 0.703125Z" fill="white"/>
<path d="M18.9724 15.375H14.0276C13.0916 17.0088 11.5112 18.1231 9.69336 18.4663V24.2315C9.69336 28.5762 12.4137 32.3502 16.5 33.7336C20.5863 32.3502 23.3066 28.5762 23.3066 24.2315V18.4663C21.4888 18.1231 19.9084 17.0088 18.9724 15.375ZM20.7468 23.1684L16.2169 27.6982C15.9824 27.9328 15.675 28.0501 15.3676 28.0501C15.0603 28.0501 14.7528 27.9329 14.5183 27.6982L12.2534 25.4333C11.7843 24.9642 11.7843 24.2037 12.2534 23.7346C12.7224 23.2655 13.483 23.2655 13.9521 23.7346L15.3677 25.1501L19.0482 21.4697C19.5173 21.0006 20.2778 21.0006 20.7469 21.4697C21.2159 21.9388 21.2159 22.6993 20.7468 23.1684Z" fill="white"/>
<path d="M22.9062 10.4102C22.2429 10.4102 21.7051 9.87235 21.7051 9.20898V0H5.28906C2.86053 0 0.884766 1.97577 0.884766 4.4043V36.5957C0.884766 39.0242 2.86053 41 5.28906 41H27.7109C30.1395 41 32.1152 39.0242 32.1152 36.5957V10.4102H22.9062ZM25.709 24.2314C25.709 26.9263 24.8586 29.4937 23.2499 31.6559C21.6413 33.818 19.4265 35.3703 16.8451 36.1446C16.7325 36.1784 16.6163 36.1953 16.5 36.1953C16.3837 36.1953 16.2675 36.1784 16.1549 36.1446C13.5735 35.3703 11.3587 33.818 9.75005 31.6559C8.14136 29.4937 7.29102 26.9263 7.29102 24.2314V17.377C7.29102 16.7136 7.82882 16.1758 8.49219 16.1758C10.0101 16.1758 11.3747 15.3324 12.0534 13.9748L12.2225 13.6367C12.4259 13.2297 12.8419 12.9727 13.2969 12.9727H19.7031C20.1581 12.9727 20.5741 13.2297 20.7775 13.6367L20.9466 13.9748C21.6253 15.3324 22.9899 16.1758 24.5078 16.1758C25.1712 16.1758 25.709 16.7136 25.709 17.377V24.2314Z" fill="white"/>
</svg>
