<svg width="111" height="22" viewBox="0 0 111 22" fill="none" xmlns="http://www.w3.org/2000/svg">
<path d="M1.24733 6.46325C1.48491 3.1608 4.34783 0.250363 7.66216 0.0246557C8.68378 -0.0703788 9.71728 0.11969 10.6914 0.416673C10.7151 2.37676 10.6914 4.34873 10.7033 6.32069C10.2994 6.17814 9.87171 6.02371 9.44406 6.09499C8.69566 6.2019 8.07794 6.86714 8.01854 7.62742C7.93538 8.42333 8.39868 9.11233 8.76694 9.77758C9.39654 10.8348 9.91923 11.9634 10.1568 13.1751C10.4182 14.7906 10.2162 16.525 9.38466 17.9624C8.31552 19.7681 6.45047 21.1461 4.35971 21.4906C2.89855 21.7757 1.34236 21.5856 0 20.9204C0.0118793 18.9247 0 16.9408 0 14.9451C0.653362 15.4203 1.52055 15.7172 2.30459 15.4203C3.00547 15.2064 3.56379 14.4699 3.40936 13.7334C3.21929 13.0681 2.85104 12.4742 2.53029 11.8683C1.61559 10.229 1.06914 8.34018 1.24733 6.46325Z" fill="black"/>
<path d="M31.4102 0.144344C33.1327 -0.164518 34.9146 0.0730683 36.5658 0.631396C36.5539 2.68652 36.5777 4.74164 36.5658 6.79676C35.3422 6.11964 33.8573 5.88205 32.5031 6.25031C31.2201 6.5473 30.0797 7.462 29.5095 8.66181C28.9868 9.75471 28.9274 11.0258 29.165 12.2019C29.3669 13.176 29.8896 14.0907 30.6855 14.7084C31.7309 15.5399 33.1564 15.7656 34.4513 15.5637C34.974 15.5043 35.3185 14.8034 34.8908 14.4233C34.2018 14.1144 33.4178 14.3282 32.6931 14.257C32.705 12.7008 32.6931 11.1327 32.705 9.57652C34.6532 9.57652 36.6014 9.57652 38.5615 9.57652C39.4287 10.6813 40.1058 11.9643 40.3434 13.3541C40.5216 14.6846 40.4147 16.0864 39.8564 17.3218C38.9417 19.3176 37.0528 20.8381 34.9264 21.3727C32.9782 21.836 30.8756 21.6697 29.0462 20.8738C26.9911 19.9828 25.328 18.3435 24.2232 16.419C22.964 14.2213 22.5838 11.6079 22.8808 9.11323C23.1065 7.10562 23.9143 5.15742 25.2329 3.62498C26.7654 1.75993 28.9987 0.465086 31.4102 0.144344Z" fill="black"/>
<path d="M98.0653 0.0731477C100.275 -0.176318 102.591 0.20382 104.528 1.34423C107.343 3.00734 109.481 5.92965 109.897 9.22022C110.123 10.9665 109.992 12.7603 109.422 14.4234C108.246 17.7852 105.312 20.4937 101.843 21.3252C99.6571 21.8242 97.305 21.7054 95.2142 20.8857C93.3135 20.1373 91.6861 18.7831 90.4625 17.1556C87.9916 13.8769 87.754 9.13707 89.7379 5.57327C90.6526 3.96956 91.983 2.61532 93.5392 1.61746C94.9054 0.750269 96.4734 0.251337 98.0653 0.0731477ZM97.994 6.23851C95.9983 6.78496 94.5965 8.8282 94.6796 10.8714C94.6678 12.5939 95.6894 14.257 97.2218 15.053C98.1603 15.5519 99.2769 15.6469 100.299 15.3975C101.415 15.1361 102.366 14.3758 102.995 13.4374C103.779 12.2376 103.91 10.6933 103.53 9.32713C103.257 8.37679 102.627 7.54524 101.855 6.93939C100.786 6.10784 99.3007 5.87025 97.994 6.23851Z" fill="black"/>
<path d="M13.792 0.513672C15.8352 0.513672 17.8785 0.513672 19.9336 0.513672C19.9336 7.37992 19.9217 14.2343 19.9336 21.1005C17.8904 21.1243 15.8352 21.1005 13.792 21.1124C13.792 14.2462 13.792 7.37992 13.792 0.513672Z" fill="black"/>
<path d="M42.4806 0.513672C44.5119 0.513672 46.5552 0.513672 48.5865 0.513672C48.5747 4.88526 48.5747 9.25685 48.5747 13.6166C48.5865 14.1274 48.634 14.6738 48.9429 15.1015C49.2993 15.5529 49.9883 15.636 50.4991 15.3985C51.0693 15.0658 51.1881 14.3412 51.2 13.7353C51.2 9.32812 51.2 4.9209 51.2 0.513672C53.2432 0.513672 55.2865 0.513672 57.3297 0.513672C57.3178 4.48136 57.3178 8.46093 57.3178 12.4286C57.3297 14.0917 57.3297 15.8142 56.6526 17.3585C55.8448 19.2474 54.1461 20.7323 52.1622 21.2787C50.3803 21.742 48.444 21.742 46.6977 21.148C45.1772 20.6254 43.9298 19.4493 43.2765 17.9881C42.6944 16.6933 42.4568 15.2559 42.4687 13.8423C42.4806 9.41128 42.4806 4.95654 42.4806 0.513672Z" fill="black"/>
<path d="M61.0469 21.0987C61.0469 14.2325 61.0469 7.36624 61.0469 0.5C63.007 0.511879 64.967 0.5 66.939 0.511879C68.6972 0.511879 70.5028 0.416845 72.1897 1.01081C74.423 1.72357 76.1692 3.75493 76.5256 6.08328C76.7157 7.30685 76.6563 8.61357 76.1692 9.76587C75.706 10.8944 74.8863 11.8566 73.9359 12.605C75.0645 15.4561 76.288 18.2596 77.4403 21.0987C75.2902 21.1106 73.1519 21.1225 71.0017 21.0869C70.0514 18.9011 69.0654 16.739 68.1032 14.5651C68.0319 14.4226 68.0557 14.2444 68.0438 14.0899C68.0438 12.4506 68.0438 10.8112 68.0319 9.1719C68.6734 9.18378 69.398 9.19566 69.9326 8.77988C70.4078 8.38787 70.5266 7.71074 70.4078 7.12866C70.3009 6.701 69.9445 6.38026 69.5406 6.23771C68.7922 5.95261 67.9606 6.0714 67.1766 6.02388C67.0816 7.15242 67.141 8.30471 67.1528 9.44513C67.1291 9.71835 67.1291 10.0035 67.1528 10.2767C67.1172 13.8761 67.1766 17.4874 67.141 21.0869C65.1096 21.1106 63.0782 21.0987 61.0469 21.0987Z" fill="black"/>
<path d="M79.437 21.1005C79.437 14.2343 79.437 7.36804 79.437 0.513672C81.4803 0.513672 83.5116 0.513672 85.5549 0.513672C85.5549 7.37992 85.543 14.2343 85.5549 21.1005C83.5235 21.1124 81.4803 21.0886 79.437 21.1005Z" fill="black"/>
</svg>
