<svg width="40" height="40" viewBox="0 0 40 40" fill="none" xmlns="http://www.w3.org/2000/svg">
<path fill-rule="evenodd" clip-rule="evenodd" d="M8.33398 6.66634C7.89196 6.66634 7.46803 6.84194 7.15547 7.1545C6.84291 7.46706 6.66732 7.89098 6.66732 8.33301V30.976L10.4888 27.1545C10.8014 26.8419 11.2253 26.6663 11.6673 26.6663H31.6673C32.1093 26.6663 32.5333 26.4907 32.8458 26.1782C33.1584 25.8656 33.334 25.4417 33.334 24.9997V8.33301C33.334 7.89098 33.1584 7.46706 32.8458 7.1545C32.5333 6.84194 32.1093 6.66634 31.6673 6.66634H8.33398ZM4.79845 4.79747C5.73613 3.85979 7.0079 3.33301 8.33398 3.33301H31.6673C32.9934 3.33301 34.2652 3.85979 35.2029 4.79747C36.1405 5.73516 36.6673 7.00692 36.6673 8.33301V24.9997C36.6673 26.3258 36.1405 27.5975 35.2029 28.5352C34.2652 29.4729 32.9934 29.9997 31.6673 29.9997H12.3577L6.17916 36.1782C5.7025 36.6549 4.98564 36.7974 4.36285 36.5395C3.74005 36.2815 3.33398 35.6738 3.33398 34.9997V8.33301C3.33398 7.00693 3.86077 5.73516 4.79845 4.79747Z" fill="#FFC000"/>
</svg>
