<svg width="148" height="166" viewBox="0 0 148 166" fill="none" xmlns="http://www.w3.org/2000/svg">
<path d="M0 30C0 13.4315 13.4315 0 30 0H118C134.569 0 148 13.4315 148 30V116.053C148 132.621 134.569 146.053 118 146.053H96L77.5 166L59 146.053H30C13.4315 146.053 0 132.621 0 116.053V30Z" fill="#FFC000"/>
<g clip-path="url(#clip0)">
<path d="M52.975 65.3163C51.9717 64.6217 50.5826 64.7761 49.888 65.7793L49.2707 66.6283L45.9522 62.9239C45.5663 62.4609 44.9489 62.1522 44.2543 62.1522H42.0935C41.7076 62.1522 41.3989 61.8435 41.3989 61.4576V47.0261C41.3989 46.6402 41.7076 46.3315 42.0935 46.3315H47.8815C49.1163 46.3315 50.1196 45.3283 50.1196 44.0935C50.1196 42.8587 49.1163 41.8554 47.8815 41.8554H42.0935C39.3152 41.9326 37 44.1707 37 47.0261V61.5348C37 64.3902 39.3152 66.6283 42.0935 66.6283H43.2511L47.65 71.6446C48.113 72.1076 48.6533 72.4163 49.3478 72.4163H49.425C50.1196 72.4163 50.737 72.0304 51.1228 71.4902L53.438 68.4033C54.1326 67.4 53.9783 66.0109 52.975 65.3163ZM49.3478 76.6609C45.7207 76.6609 42.788 79.5935 42.788 83.2206C42.788 86.8478 45.7207 89.7804 49.3478 89.7804C52.975 89.7804 55.9076 86.8478 55.9076 83.2206C55.9076 79.5935 52.975 76.6609 49.3478 76.6609ZM49.3478 85.3043C48.1902 85.3043 47.187 84.3783 47.187 83.1435C47.187 81.9859 48.113 80.9826 49.3478 80.9826C50.5826 80.9826 51.5087 81.9087 51.5087 83.1435C51.5087 84.3783 50.5054 85.3043 49.3478 85.3043ZM53.6696 91.0924H45.0261C40.6272 91.0924 37 94.7196 37 99.1185V102.051C37 103.286 38.0033 104.289 39.238 104.289C40.4728 104.289 41.4761 103.286 41.4761 102.051V99.1185C41.4761 97.112 43.0967 95.5685 45.0261 95.5685H53.7467C54.9815 95.5685 55.9848 94.5652 55.9848 93.3304C55.9076 92.0957 54.9043 91.0924 53.6696 91.0924ZM72.5 72.262C67.2522 72.262 63.0076 76.5065 63.0076 81.7543C63.0076 87.0022 67.2522 91.2467 72.5 91.2467C77.7478 91.2467 81.9924 87.0022 81.9924 81.7543C81.9924 76.5065 77.7478 72.262 72.5 72.262ZM72.5 86.7707C69.7217 86.7707 67.4837 84.5326 67.4837 81.7543C67.4837 78.9761 69.7217 76.738 72.5 76.738C75.2783 76.738 77.5163 78.9761 77.5163 81.7543C77.5163 84.5326 75.2783 86.7707 72.5 86.7707ZM81.2206 94.025H63.8565C59.4576 94.025 55.8304 97.6522 55.8304 102.051V107.839C55.8304 109.074 56.8337 110.077 58.0685 110.077C59.3033 110.077 60.3065 109.074 60.3065 107.839V102.051C60.3065 100.045 61.9272 98.5011 63.8565 98.5011H81.2206C83.15 98.5011 84.7707 100.122 84.7707 102.051V107.839C84.7707 109.074 85.7739 110.077 87.0087 110.077C88.2435 110.077 89.2467 109.074 89.2467 107.839V102.051C89.1696 97.575 85.6196 94.025 81.2206 94.025ZM85.5424 39H59.4576C56.6022 39 54.3641 41.3152 54.3641 44.0935V58.6022C54.3641 61.4576 56.6793 63.6957 59.4576 63.6957H67.0207L70.725 68.5576C71.1109 69.0978 71.7283 69.4065 72.4228 69.4837H72.5C73.1174 69.4837 73.7348 69.175 74.1978 68.712L78.5967 63.6957H85.5424C88.3207 63.6957 90.6359 61.3804 90.6359 58.6022V44.0935C90.6359 41.3152 88.3207 39 85.5424 39ZM86.237 58.6022C86.237 58.988 85.9283 59.2967 85.5424 59.2967H77.5935C76.9761 59.2967 76.3587 59.6054 75.8957 60.0685L72.6543 63.7728L69.9533 60.1457C69.5674 59.6054 68.8728 59.2196 68.1783 59.2196H59.4576C59.0717 59.2196 58.763 58.9109 58.763 58.525V44.0935C58.763 43.7076 59.0717 43.3989 59.4576 43.3989H85.5424C85.9283 43.3989 86.237 43.7076 86.237 44.0935V58.6022ZM95.6522 76.6609C92.025 76.6609 89.0924 79.5935 89.0924 83.2206C89.0924 86.8478 92.025 89.7804 95.6522 89.7804C99.2793 89.7804 102.212 86.8478 102.212 83.2206C102.212 79.5935 99.2793 76.6609 95.6522 76.6609ZM95.6522 85.3043C94.4946 85.3043 93.4913 84.3783 93.4913 83.1435C93.4913 81.9859 94.4174 80.9826 95.6522 80.9826C96.887 80.9826 97.813 81.9087 97.813 83.1435C97.813 84.3783 96.8098 85.3043 95.6522 85.3043ZM102.907 41.9326H97.1185C95.8837 41.9326 94.8804 42.8587 94.8804 44.0935C94.8804 45.3283 95.8837 46.3315 97.1185 46.3315H102.907C103.292 46.3315 103.601 46.6402 103.601 47.0261V61.5348C103.601 61.9207 103.292 62.2293 102.907 62.2293H100.746C100.128 62.2293 99.5109 62.4609 99.0478 63.0011L95.8065 66.7054L95.1891 65.8565C94.4946 64.8533 93.0283 64.6989 92.1022 65.3935C91.6391 65.7793 91.3304 66.2424 91.2533 66.8598C91.1761 67.4772 91.3304 68.0174 91.6391 68.4804L93.9543 71.5674C94.3402 72.1076 94.9576 72.4163 95.6522 72.4935C96.2696 72.4935 96.887 72.1848 97.35 71.7217L101.749 66.7054H102.907C105.685 66.7054 108 64.3902 108 61.612V47.0261C108 44.1707 105.685 41.9326 102.907 41.9326ZM99.9739 91.0924H91.3304C90.0957 91.0924 89.0924 92.0957 89.0924 93.3304C89.0924 94.5652 90.0957 95.5685 91.3304 95.5685H100.051C101.98 95.5685 103.601 97.1891 103.601 99.1185V102.051C103.601 103.286 104.604 104.289 105.839 104.289C107.074 104.289 108.077 103.286 108.077 102.051V99.1185C108 94.7196 104.373 91.0924 99.9739 91.0924Z" fill="white"/>
</g>
<defs>
<clipPath id="clip0">
<rect width="71" height="71" fill="white" transform="translate(37 39)"/>
</clipPath>
</defs>
</svg>
