<svg width="80" height="74" viewBox="0 0 80 74" fill="none" xmlns="http://www.w3.org/2000/svg">
<path d="M39.9772 7.54499C22.5397 -7.70666 0.368074 5.69388 0.00450843 23.8605C-0.0881408 28.4903 1.24832 33.0001 3.90859 37.1577H21.1516L24.2186 32.0459C25.1092 30.5618 27.2643 30.514 28.2053 31.9936L34.6762 42.162L44.1088 22.2493C44.9314 20.5118 47.3829 20.4567 48.2902 22.1415L56.3758 37.1577H76.0459C90.617 14.3845 61.8196 -11.559 39.9772 7.54499Z" fill="#FFC000"/>
<path d="M52.9124 40.6133L46.3604 28.4453L37.0954 48.0048C36.3071 49.6689 33.9887 49.8134 33.0002 48.2597L26.2866 37.7101L24.4879 40.708C24.0643 41.4139 23.3016 41.8457 22.4783 41.8457H7.61572C8.08162 42.3333 5.59853 39.8552 38.324 72.4112C39.238 73.3206 40.7155 73.3208 41.6297 72.4112C73.8516 40.3561 71.873 42.3324 72.338 41.8457H54.9759C54.1136 41.8459 53.3211 41.3725 52.9124 40.6133Z" fill="#FFC000"/>
</svg>
