<svg width="86" height="86" viewBox="0 0 86 86" fill="none" xmlns="http://www.w3.org/2000/svg">
<g clip-path="url(#clip0)">
<path d="M68.9794 39.4167H17.021C16.2112 39.4167 15.4444 39.0512 14.9355 38.4241C14.4231 37.7934 14.226 36.9692 14.3909 36.1773L21.5575 2.13567C21.8191 0.89225 22.9192 0 24.1877 0H61.8127C63.0812 0 64.1813 0.89225 64.4429 2.13567L71.6095 36.1773C71.7744 36.9692 71.5737 37.7934 71.0649 38.4241C70.556 39.0512 69.7892 39.4167 68.9794 39.4167Z" fill="#FFC000"/>
<path d="M61.8125 85.9994H24.1875C22.704 85.9994 21.5 84.7954 21.5 83.3119V76.1452C21.5 70.7093 25.9183 66.291 31.3542 66.291H54.6458C60.0817 66.291 64.5 70.7093 64.5 76.1452V83.3119C64.5 84.7954 63.296 85.9994 61.8125 85.9994Z" fill="#FFC000"/>
<path d="M54.646 43V47.4792C54.646 49.4572 56.2477 51.0625 58.2293 51.0625C60.2109 51.0625 61.8127 49.4572 61.8127 47.4792V43H54.646Z" fill="#FFC000"/>
<path d="M39.4165 43H46.5832V62.7083H39.4165V43Z" fill="#FFC000"/>
</g>
<defs>
<clipPath id="clip0">
<rect width="86" height="86" fill="white"/>
</clipPath>
</defs>
</svg>
