<svg width="90" height="90" viewBox="0 0 90 90" fill="none" xmlns="http://www.w3.org/2000/svg">
<g clip-path="url(#clip0)">
<path d="M24.9975 55.5153L28.2862 54.6941C28.8411 54.5554 29.3024 54.1729 29.5386 53.6515C29.7749 53.134 29.7636 52.5341 29.5049 52.024C28.9387 50.9139 28.4699 49.759 28.1099 48.5852C28.0011 48.2215 27.7799 47.8989 27.4836 47.6627C25.8073 46.3352 24.7423 44.4452 24.4798 42.3302L23.8686 37.444C23.5949 35.2652 24.2362 33.0415 25.6236 31.3428C25.9311 30.964 26.0812 30.4841 26.0399 30.0003C25.9724 29.194 25.9274 28.4442 25.9274 27.889C25.9274 25.4852 26.3211 23.3252 27.1049 21.4728C27.36 20.8617 27.2774 20.1566 26.8799 19.6242C26.4825 19.0917 25.8187 18.7917 25.1736 18.878C23.2386 19.0842 21.5773 19.6393 20.1148 20.5655C11.7448 20.8392 10.7585 25.3242 10.7585 28.7029C10.7585 29.4004 10.8898 30.7392 11.006 31.8192C10.6798 32.0141 10.3797 32.2579 10.121 32.5504C9.42346 33.3379 9.1009 34.3878 9.23221 35.4341L9.68221 39.0192C9.8434 40.3317 10.691 41.4078 11.9435 41.918C12.3971 44.198 13.4923 46.4143 15.0335 48.158L14.6811 49.5755L8.38107 51.1505C3.4425 52.3803 0 56.794 0 61.879C0 62.914 0.840059 63.754 1.87506 63.754H12.9001C13.5225 63.754 14.1001 63.4466 14.4489 62.9328C16.9799 59.2203 20.7262 56.5841 24.9975 55.5153Z" fill="#FFC000"/>
<path d="M64.0952 59.1563L55.1065 56.91L54.4914 54.4538C56.8615 51.9976 58.5076 48.7312 59.0851 45.3601C60.5214 44.7976 61.6014 43.4813 61.8 41.8726L62.4112 36.9825C62.565 35.7638 62.1862 34.5376 61.3838 33.6112C61.0201 33.195 60.5813 32.8538 60.0976 32.6063L60.2888 28.6988L61.0389 27.9451C62.2989 26.6063 63.9976 23.7263 61.2414 19.5188C59.2802 16.5227 55.9801 15.0039 51.4314 15.0039C49.6952 15.0039 45.724 15.0039 41.9589 17.4601C31.0877 17.7489 29.6739 23.1638 29.6739 27.8813C29.6739 28.905 29.8913 31.0051 30.064 32.52C29.524 32.7675 29.0365 33.1275 28.6352 33.5812C27.814 34.5112 27.4352 35.7487 27.589 36.975L28.2002 41.865C28.4139 43.5863 29.6252 44.97 31.2152 45.4575C31.7889 48.6825 33.3451 51.8213 35.5689 54.2212L34.8976 56.9024L25.9088 59.1487C19.4888 60.7538 15.0039 66.4987 15.0039 73.1212C15.0039 74.1562 15.844 74.9963 16.879 74.9963H73.1289C74.1639 74.9963 75.004 74.1525 75.004 73.1175C75.0003 66.5025 70.5153 60.7613 64.0952 59.1563Z" fill="#FFC000"/>
<path d="M81.6228 51.1463L75.3228 49.5713L75.0115 48.3263C76.654 46.5412 77.8127 44.2462 78.274 41.8612C79.3615 41.3325 80.1603 40.2825 80.3178 39.015L80.7678 35.4299C80.8991 34.3949 80.5802 33.3524 79.8978 32.5687C79.6616 32.2987 79.3879 32.0662 79.0915 31.8788L79.2077 29.5126L79.6315 29.0888C80.6553 27.9975 82.0466 25.6651 79.834 22.2901C78.7765 20.6777 76.5977 18.7539 72.2215 18.7539C70.444 18.7539 68.8765 18.9938 67.429 19.4927C66.5214 19.804 65.9965 20.749 66.2103 21.6865C66.8591 24.5027 66.3191 27.1914 64.6502 29.4678C64.1665 30.1278 64.1665 31.024 64.6465 31.684C65.8652 33.3527 66.394 35.4002 66.1391 37.444L65.5279 42.3378C65.2841 44.3065 64.3205 46.1141 62.813 47.4228C62.543 47.659 62.3441 47.9665 62.2429 48.3078C61.8604 49.5979 61.3541 50.8653 60.7317 52.0766C60.4693 52.5865 60.4541 53.1866 60.6904 53.7078C60.9266 54.229 61.3916 54.6154 61.9428 54.7504L65.0065 55.5154C69.2778 56.5841 73.0241 59.2166 75.5553 62.9328C75.9041 63.4466 76.4854 63.7541 77.1041 63.7541H88.1254C89.1604 63.7541 90.0005 62.9103 90.0005 61.8753C90.0003 56.7902 86.5578 52.3802 81.6228 51.1463Z" fill="#FFC000"/>
</g>
<defs>
<clipPath id="clip0">
<rect width="90" height="90" fill="white"/>
</clipPath>
</defs>
</svg>
