<svg width="24" height="24" viewBox="0 0 24 24" fill="none" xmlns="http://www.w3.org/2000/svg">
<g clip-path="url(#clip0)">
<path fill-rule="evenodd" clip-rule="evenodd" d="M1.71019 0.290185L23.7102 22.2902C23.8026 22.3845 23.8755 22.4961 23.9245 22.6187C23.9736 22.7413 23.9979 22.8723 23.996 23.0044C23.9942 23.1364 23.9662 23.2667 23.9137 23.3879C23.8612 23.509 23.7852 23.6185 23.6902 23.7102C23.5972 23.8039 23.4866 23.8783 23.3648 23.9291C23.2429 23.9798 23.1122 24.006 22.9802 24.006C22.8482 24.006 22.7175 23.9798 22.5956 23.9291C22.4737 23.8783 22.3631 23.8039 22.2702 23.7102L17.8102 19.2402C16.077 20.3602 14.0636 20.9701 12.0002 21.0002C4.47018 21.0002 0.280185 12.8002 0.120185 12.4502C0.0465419 12.308 0.00810428 12.1503 0.00810428 11.9902C0.00810428 11.8301 0.0465419 11.6723 0.120185 11.5302C1.25209 9.42409 2.76819 7.54846 4.59019 6.00019L0.290185 1.71019C0.101882 1.52188 -0.00390625 1.26649 -0.00390625 1.00019C-0.00390625 0.733884 0.101882 0.478489 0.290185 0.290185C0.478489 0.101882 0.733884 -0.00390625 1.00019 -0.00390625C1.26649 -0.00390625 1.52188 0.101882 1.71019 0.290185ZM12.5502 14.0002L10.0002 11.4502C9.93206 11.6871 9.90833 11.9346 9.93019 12.1802C9.95101 12.709 10.1806 13.2079 10.5685 13.5678C10.9565 13.9277 11.4713 14.1191 12.0002 14.1002C12.1872 14.0921 12.3723 14.0585 12.5502 14.0002ZM2.14019 12.0002C3.08019 13.6102 6.63019 19.0002 12.0002 19.0002C13.5464 18.9816 15.0618 18.5648 16.4002 17.7902L14.0702 15.4602C13.4723 15.8448 12.7808 16.0592 12.0702 16.0802H11.9202C10.9096 16.0767 9.93788 15.6908 9.20018 15.0002C8.43744 14.2903 7.98179 13.3109 7.93019 12.2702C7.89523 11.4688 8.10824 10.6761 8.54018 10.0002L6.00019 7.42019C4.45745 8.71124 3.15127 10.2611 2.14019 12.0002ZM11.9999 5.00002C11.3717 5.01613 10.7461 5.08639 10.1299 5.21002C9.88134 5.24861 9.62732 5.19207 9.41855 5.05168C9.20977 4.91129 9.06159 4.69737 9.00354 4.45257C8.9455 4.20777 8.98186 3.95009 9.10537 3.73091C9.22889 3.51173 9.43048 3.34716 9.66995 3.27002C10.4306 3.07403 11.2146 2.98319 11.9999 3.00002C19.5299 3.00002 23.7199 11.2 23.8799 11.55C23.9536 11.6922 23.992 11.8499 23.992 12.01C23.992 12.1701 23.9536 12.3279 23.8799 12.47C23.2438 13.6669 22.4829 14.7932 21.61 15.83C21.4402 16.0342 21.1963 16.1627 20.9319 16.187C20.6674 16.2114 20.4042 16.1298 20.2 15.96C19.9957 15.7903 19.8673 15.5464 19.8429 15.2819C19.8186 15.0175 19.9002 14.7542 20.07 14.55C20.7392 13.7534 21.3381 12.9002 21.86 12C20.92 10.39 17.3799 5.00002 11.9999 5.00002Z" fill="#1F1F1F"/>
</g>
<defs>
<clipPath id="clip0">
<rect width="24" height="24" fill="white"/>
</clipPath>
</defs>
</svg>
