<svg width="24" height="24" viewBox="0 0 24 24" fill="none" xmlns="http://www.w3.org/2000/svg">
<path fill-rule="evenodd" clip-rule="evenodd" d="M0.110878 12.45C0.280878 12.8 4.47088 21 12.0009 21C19.5309 21 23.7209 12.8 23.8909 12.45C23.9612 12.3104 23.9978 12.1563 23.9978 12C23.9978 11.8437 23.9612 11.6896 23.8909 11.55C23.7209 11.2 19.5309 3 12.0009 3C4.47088 3 0.280878 11.2 0.110878 11.55C0.0405434 11.6896 0.00390625 11.8437 0.00390625 12C0.00390625 12.1563 0.0405434 12.3104 0.110878 12.45ZM12.0009 19C6.62088 19 3.08088 13.61 2.14088 12C3.08088 10.39 6.62088 5 12.0009 5C17.3809 5 20.9209 10.39 21.8609 12C20.9209 13.61 17.3809 19 12.0009 19ZM9.7787 15.3259C10.4365 15.7654 11.2099 16 12.001 16C13.0618 16 14.0793 15.5786 14.8294 14.8284C15.5796 14.0783 16.001 13.0609 16.001 12C16.001 11.2089 15.7664 10.4355 15.3269 9.77772C14.8873 9.11993 14.2626 8.60723 13.5317 8.30448C12.8008 8.00173 11.9965 7.92252 11.2206 8.07686C10.4447 8.2312 9.73196 8.61216 9.17255 9.17157C8.61314 9.73098 8.23218 10.4437 8.07784 11.2196C7.9235 11.9956 8.00271 12.7998 8.30546 13.5307C8.60821 14.2616 9.1209 14.8864 9.7787 15.3259ZM10.8898 10.3371C11.2187 10.1173 11.6054 10 12.001 10C12.5314 10 13.0401 10.2107 13.4152 10.5858C13.7903 10.9609 14.001 11.4696 14.001 12C14.001 12.3956 13.8837 12.7822 13.6639 13.1111C13.4442 13.44 13.1318 13.6964 12.7663 13.8478C12.4009 13.9991 11.9988 14.0387 11.6108 13.9616C11.2228 13.8844 10.8665 13.6939 10.5868 13.4142C10.3071 13.1345 10.1166 12.7781 10.0394 12.3902C9.96224 12.0022 10.0018 11.6001 10.1532 11.2346C10.3046 10.8692 10.5609 10.5568 10.8898 10.3371Z" fill="black"/>
</svg>
