<svg width="131" height="157" viewBox="0 0 131 157" fill="none" xmlns="http://www.w3.org/2000/svg">
<path d="M103.931 135.716H85.8781L65.8061 156.926L45.7342 135.716H26.9253C19.7864 135.715 12.94 132.878 7.89096 127.829C2.84196 122.779 0.00366982 115.931 1.41255e-05 108.788V27.1153C-0.00360997 23.5754 0.690161 20.0695 2.04166 16.798C3.39316 13.5265 5.37589 10.5536 7.8765 8.04922C10.3771 5.54484 13.3466 3.55811 16.6151 2.20261C19.8836 0.847106 23.3871 0.149412 26.9253 0.149414H103.931C107.468 0.149052 110.969 0.845656 114.237 2.19944C117.504 3.55323 120.473 5.53768 122.973 8.03947C125.474 10.5413 127.457 13.5114 128.81 16.7802C130.163 20.049 130.86 23.5525 130.859 27.0905V108.788C130.856 115.931 128.017 122.78 122.967 127.83C117.918 132.879 111.071 135.716 103.931 135.716Z" fill="#FFC000"/>
<path d="M70.1334 19.2072C73.7848 18.1421 77.6348 18.0869 81.4021 18.3077C84.069 18.5836 86.7552 19.0361 89.2814 19.9632L89.4138 20.1398C89.4524 25.454 89.4138 30.7711 89.4469 36.0853C89.6041 39.5289 89.4276 42.9834 89.491 46.4186C88.2858 46.0986 87.122 45.6102 85.8892 45.406C82.9907 45.1053 79.9211 46.4849 78.3767 48.993C77.3646 50.632 77.2929 52.649 77.5052 54.5115C77.9272 57.5135 79.6371 60.0878 81.0905 62.6732C84.3613 68.1917 86.8517 74.3365 87.3509 80.7958C87.5633 84.3828 87.4116 88.036 86.3553 91.4878C85.1308 95.8888 82.7259 99.8952 79.7005 103.292C76.2526 107.202 71.9291 110.241 67.0831 112.16C62.863 113.723 58.3853 114.472 53.8866 114.367C49.5815 114.423 45.3206 113.402 41.3437 111.807C41.2637 102.864 41.3437 93.9215 41.2803 84.9816C43.5941 86.3612 46.1976 87.4345 48.9362 87.3462C51.8789 87.4207 54.9815 85.8287 56.1453 83.0281C56.65 81.7092 56.9727 80.175 56.3825 78.8285C55.2793 76.0279 53.677 73.4673 52.276 70.8268C48.6466 64.0032 46.41 56.2912 46.7961 48.5129C47.0124 42.2024 49.188 36.116 53.0206 31.0994C57.2843 25.4596 63.2717 21.0227 70.1334 19.2072Z" fill="white"/>
</svg>
