<svg width="148" height="166" viewBox="0 0 148 166" fill="none" xmlns="http://www.w3.org/2000/svg">
<path d="M0 30C0 13.4315 13.4315 0 30 0H118C134.569 0 148 13.4315 148 30V116.053C148 132.621 134.569 146.053 118 146.053H95L76.5 166L58 146.053H30C13.4315 146.053 0 132.621 0 116.053V30Z" fill="#FFC000"/>
<path d="M50.5389 95.0491C52.4082 95.0491 53.9235 93.5483 53.9235 91.6969C53.9235 89.8456 52.4082 88.3447 50.5389 88.3447C48.6696 88.3447 47.1543 89.8456 47.1543 91.6969C47.1543 93.5483 48.6696 95.0491 50.5389 95.0491Z" fill="white"/>
<path d="M50.5389 75.7738C52.4082 75.7738 53.9235 74.2729 53.9235 72.4215C53.9235 70.5702 52.4082 69.0693 50.5389 69.0693C48.6696 69.0693 47.1543 70.5702 47.1543 72.4215C47.1543 74.2729 48.6696 75.7738 50.5389 75.7738Z" fill="white"/>
<path d="M64.9227 95.0491C66.792 95.0491 68.3073 93.5483 68.3073 91.6969C68.3073 89.8456 66.792 88.3447 64.9227 88.3447C63.0534 88.3447 61.5381 89.8456 61.5381 91.6969C61.5381 93.5483 63.0534 95.0491 64.9227 95.0491Z" fill="white"/>
<path d="M64.9227 75.7738C66.792 75.7738 68.3073 74.2729 68.3073 72.4215C68.3073 70.5702 66.792 69.0693 64.9227 69.0693C63.0534 69.0693 61.5381 70.5702 61.5381 72.4215C61.5381 74.2729 63.0534 75.7738 64.9227 75.7738Z" fill="white"/>
<path d="M50.5389 57.3363C52.4082 57.3363 53.9235 55.8354 53.9235 53.984C53.9235 52.1327 52.4082 50.6318 50.5389 50.6318C48.6696 50.6318 47.1543 52.1327 47.1543 53.984C47.1543 55.8354 48.6696 57.3363 50.5389 57.3363Z" fill="white"/>
<path d="M64.9227 57.3363C66.792 57.3363 68.3073 55.8354 68.3073 53.984C68.3073 52.1327 66.792 50.6318 64.9227 50.6318C63.0534 50.6318 61.5381 52.1327 61.5381 53.984C61.5381 55.8354 63.0534 57.3363 64.9227 57.3363Z" fill="white"/>
<path d="M103 63.2867C105.877 61.1078 107.654 57.6718 107.654 53.9005C107.654 47.3637 102.323 42.084 95.8077 42.084H48.8462C42.3308 42.0002 37 47.2799 37 53.8167C37 57.6718 38.8615 61.1078 41.6538 63.2867C41.2308 63.6219 40.8077 63.9572 40.4692 64.3762C38.2692 66.5551 37 69.5721 37 72.6729C37 76.5279 38.8615 79.9639 41.6538 82.1429C41.2308 82.4781 40.8077 82.8133 40.4692 83.2323C38.2692 85.4113 37 88.4283 37 91.5291C37 98.0659 42.3308 103.346 48.8462 103.346H67.7154C69.0692 103.346 70.0846 102.256 70.0846 100.915C70.0846 99.5744 68.9846 98.4849 67.7154 98.4849H48.8462C44.9538 98.4849 41.8231 95.3003 41.8231 91.4453C41.8231 89.6015 42.5846 87.8416 43.8538 86.5008C45.2077 85.1599 46.9 84.4056 48.7615 84.4056H83.2846C84.6385 84.4056 85.7385 83.3162 85.7385 81.9753C85.7385 80.6344 84.6385 79.5449 83.2846 79.5449H48.8462C44.9538 79.5449 41.8231 76.3603 41.8231 72.5053C41.8231 70.6616 42.5846 68.9017 43.8538 67.5608C45.2077 66.2199 46.9 65.4656 48.7615 65.4656H95.8077C98.1769 65.4656 100.377 66.6389 101.731 68.734C102.069 69.3207 102.577 69.6559 103.254 69.8235C103.931 69.9911 104.523 69.8235 105.031 69.4883C106.131 68.8179 106.469 67.3094 105.792 66.1361C105.115 65.1304 104.185 64.1248 103 63.2867ZM48.8462 46.8609H95.8923C99.7846 46.8609 102.915 50.0455 102.915 53.9005C102.915 57.7556 99.7846 60.9402 95.8923 60.9402H48.8462C44.9538 60.9402 41.8231 57.7556 41.8231 53.9005C41.8231 49.9617 44.9538 46.8609 48.8462 46.8609Z" fill="white"/>
<path d="M112.393 80.7176L107.993 76.2759C106.977 75.1864 105.539 74.6836 104.016 74.6836C102.493 74.6836 101.139 75.2702 100.123 76.2759L75.6695 100.747C75.3311 101.082 75.0772 101.501 74.9926 102.004L72.7926 113.15C72.7926 113.318 72.708 113.485 72.708 113.653C72.708 114.24 72.9619 114.91 73.3849 115.329C73.808 115.748 74.4849 116 75.0772 116C75.2465 116 75.4157 116 75.5849 116L86.6695 113.737C87.1772 113.653 87.6003 113.402 87.9388 113.066L112.308 88.5953C114.508 86.4163 114.508 82.8965 112.393 80.7176ZM108.923 85.1592L85.0619 109.128L78.208 110.468L79.5619 103.596L103.508 79.7119C103.762 79.4605 104.27 79.4605 104.523 79.7119L108.923 84.1536C109.262 84.405 109.262 84.9078 108.923 85.1592Z" fill="white"/>
</svg>
