<svg width="148" height="166" viewBox="0 0 148 166" fill="none" xmlns="http://www.w3.org/2000/svg">
<path d="M0 30C0 13.4315 13.4315 0 30 0H118C134.569 0 148 13.4315 148 30V116.053C148 132.621 134.569 146.053 118 146.053H95L76.5 166L58 146.053H30C13.4315 146.053 0 132.621 0 116.053V30Z" fill="#FFC000"/>
<path d="M103.406 96.104L103.406 96.1037C103.697 94.7977 103.311 93.5381 102.342 92.6327L102.684 92.2673L102.343 92.6337C101.724 92.0589 101.508 91.1788 101.773 90.3871M103.406 96.104L102.247 90.5457M103.406 96.104C103.054 97.6844 101.476 98.8915 99.5969 98.8915H69C67.8211 98.8915 66.2528 98.637 64.7425 98.208C63.3398 97.8096 62.0385 97.2752 61.1667 96.6929V69.3414L63.2918 68.2895L63.2938 68.2885C63.7313 68.0695 64.0816 67.7092 64.2892 67.2677L64.29 67.266L74.29 45.7877L74.29 45.7877C74.4205 45.5074 74.49 45.1975 74.49 44.886V34.5225C75.1605 34.1898 76.164 33.8207 77.3233 33.8207C77.6165 33.8207 78.153 34.0224 78.8453 34.516C79.5138 34.9928 80.2571 35.6914 80.9509 36.5607C82.3423 38.304 83.49 40.6755 83.49 43.2338C83.49 46.0678 82.7088 49.5625 81.9097 52.387C81.5119 53.7933 81.1128 55.0222 80.8113 55.9045C80.6605 56.3455 80.5343 56.6995 80.4449 56.9453C80.4002 57.0682 80.3647 57.164 80.3401 57.23C80.3196 57.2848 80.3078 57.3156 80.3041 57.3253C80.3031 57.3279 80.3027 57.329 80.3029 57.3286L80.3028 57.3286L80.2997 57.3367C80.0479 57.9952 80.1339 58.7419 80.5443 59.326C80.9507 59.9047 81.613 60.2523 82.3267 60.2523H105.263C107.825 60.2523 109.933 62.0632 110.139 64.2858L110.139 64.2864C110.297 65.976 109.486 67.5846 108.007 68.4882C107.337 68.8937 106.947 69.6301 106.977 70.4043C107.004 71.185 107.459 71.8809 108.152 72.2354L108.154 72.2361C109.397 72.867 110.16 74.0982 110.16 75.4441C110.157 77.266 108.767 78.8121 106.911 79.0221M103.406 96.104L106.013 82.3575M101.773 90.3871L102.247 90.5457M101.773 90.3871C101.773 90.3874 101.772 90.3877 101.772 90.3879L102.247 90.5457M101.773 90.3871C102.039 89.5873 102.748 89.0259 103.581 88.9319C105.441 88.7219 106.83 87.1757 106.83 85.3545C106.83 84.3601 106.424 83.4274 105.673 82.7234M102.247 90.5457C102.45 89.9343 102.994 89.5014 103.637 89.4288C105.743 89.1909 107.33 87.4362 107.33 85.3545C107.33 84.2179 106.863 83.1538 106.013 82.3575M105.673 82.7234C105.673 82.7236 105.673 82.7237 105.673 82.7239L106.013 82.3575M105.673 82.7234C105.672 82.7231 105.672 82.7227 105.672 82.7224L106.013 82.3575M105.673 82.7234C105.054 82.1486 104.838 81.2688 105.103 80.4773C105.369 79.6775 106.078 79.1161 106.911 79.0221M106.911 79.0221L106.967 79.519M106.911 79.0221C106.911 79.0221 106.911 79.0221 106.911 79.0221L106.967 79.519M106.967 79.519C106.323 79.5916 105.78 80.0245 105.577 80.6359L106.967 79.519ZM70.978 31.6218L70.9779 31.6218C70.4629 32.0336 70.1669 32.6497 70.1669 33.3043V44.3954L61.0467 63.987C60.7512 63.1449 59.9438 62.5433 59.0002 62.5433H42.3333C37.468 62.5435 33.5 66.4707 33.5 71.3043V97.7392C33.5 102.573 37.468 106.5 42.3333 106.5H52.3333C55.9584 106.5 59.0787 104.326 60.4432 101.226C63.2268 102.523 66.7485 103.199 69.0033 103.199H99.6C103.445 103.199 106.836 100.626 107.638 97.0353L107.638 97.035C108.009 95.3672 107.847 93.6831 107.202 92.1796C109.587 90.801 111.167 88.2465 111.167 85.3511C111.167 84.2705 110.951 83.2276 110.536 82.263C112.92 80.8844 114.5 78.3303 114.5 75.438C114.5 73.477 113.772 71.6399 112.508 70.2206C113.956 68.4722 114.676 66.2148 114.461 63.8799C114.048 59.3978 109.989 55.9347 105.273 55.9347H85.3749C86.3916 52.7563 87.8334 47.5144 87.8334 43.2174C87.8334 39.4926 86.2395 36.0783 84.163 33.5999C83.1233 32.3591 81.9532 31.341 80.7825 30.63C79.6179 29.9226 78.4204 29.5 77.3334 29.5C73.6982 29.5 71.1096 31.5166 70.978 31.6218ZM42.3333 66.8643H56.8266V68.0166C56.8266 68.0463 56.8291 68.0739 56.8331 68.099C56.8332 68.0994 56.8332 68.0997 56.8333 68.1001V97.7392C56.8333 100.191 54.8148 102.196 52.3333 102.196H42.3333C39.8455 102.196 37.8333 100.192 37.8333 97.7392V71.3043C37.8333 68.9815 39.6411 67.0609 41.9433 66.8643H42.3333Z" fill="white" stroke="white"/>
</svg>
